<?xml version="1.0" encoding="UTF-8" standalone="no"?>
<!-- Created with Inkscape (http://www.inkscape.org/) -->

<svg
   width="1024mm"
   height="1024mm"
   viewBox="0 0 1024 1024"
   version="1.1"
   id="svg1"
   xml:space="preserve"
   xmlns:xlink="http://www.w3.org/1999/xlink"
   xmlns="http://www.w3.org/2000/svg"
   xmlns:svg="http://www.w3.org/2000/svg"><defs
     id="defs1"><pattern
       xlink:href="#circle"
       preserveAspectRatio="xMidYMid"
       id="pattern32"
       patternTransform="translate(307.92203,-100.78567)"
       x="0"
       y="0" /><pattern
       patternUnits="userSpaceOnUse"
       width="10"
       height="10"
       patternTransform="translate(307.92203,-100.78567)"
       preserveAspectRatio="xMidYMid"
       id="circle"
       style="fill:#003500"
       x="0"
       y="0"><circle
         style="display:inline;fill-opacity:1;stroke-width:6;stroke-linecap:square;paint-order:markers fill stroke;stop-color:#000000"
         id="path10"
         cx="5"
         cy="5"
         r="5" /></pattern><linearGradient
       id="swatch23"><stop
         style="stop-color:#000000;stop-opacity:1;"
         offset="0"
         id="stop23" /></linearGradient><linearGradient
       id="linearGradient21"><stop
         style="stop-color:#000000;stop-opacity:1;"
         offset="0"
         id="stop21" /><stop
         style="stop-color:#000000;stop-opacity:0;"
         offset="1"
         id="stop22" /></linearGradient><linearGradient
       id="linearGradient15"><stop
         style="stop-color:#139118;stop-opacity:1;"
         offset="0"
         id="stop16" /><stop
         style="stop-color:#023302;stop-opacity:0.72941178;"
         offset="0.20145394"
         id="stop18" /><stop
         style="stop-color:#000000;stop-opacity:1;"
         offset="0.43723848"
         id="stop17" /><stop
         style="stop-color:#000000;stop-opacity:1;"
         offset="0.96652722"
         id="stop19" /></linearGradient><linearGradient
       id="swatch7"><stop
         style="stop-color:#000000;stop-opacity:1;"
         offset="0"
         id="stop7" /></linearGradient><linearGradient
       id="linearGradient4"><stop
         style="stop-color:#a59e01;stop-opacity:1;"
         offset="0"
         id="stop5" /><stop
         style="stop-color:#1a1606;stop-opacity:1;"
         offset="0.24058577"
         id="stop15" /><stop
         style="stop-color:#f2f778;stop-opacity:1;"
         offset="0.44095725"
         id="stop13" /><stop
         style="stop-color:#3b3223;stop-opacity:1;"
         offset="0.80354279"
         id="stop14" /><stop
         style="stop-color:#896b34;stop-opacity:1;"
         offset="1"
         id="stop6" /></linearGradient><linearGradient
       xlink:href="#linearGradient4"
       id="linearGradient6"
       x1="252.3199"
       y1="449.82263"
       x2="846.30981"
       y2="579.34833"
       gradientUnits="userSpaceOnUse"
       gradientTransform="matrix(1.3897624,0,0,1.3897624,-197.87105,-294.63257)" /><radialGradient
       xlink:href="#linearGradient15"
       id="radialGradient17"
       cx="503.31503"
       cy="674.80164"
       fx="503.31503"
       fy="674.80164"
       r="256.25159"
       gradientTransform="matrix(1.3468366,-0.34273993,0.239275,0.94025915,-312.553,90.666467)"
       gradientUnits="userSpaceOnUse" /></defs><g
     id="layer1"><path
       style="display:inline;fill:url(#linearGradient6);fill-rule:nonzero;stroke-width:1.38976"
       d="M 510.41556,878.09021 C 445.61281,871.93616 371.5323,844.84201 313.0442,805.90378 282.683,785.6909 235.15916,740.26659 210.90471,708.27663 183.59874,672.2619 149.16826,601.32908 138.60339,559.32317 127.41248,514.82828 122.96015,473.66569 124.97765,433.35091 133.98932,253.27355 250.81146,102.08896 425.42053,57.48627 c 28.53909,-7.290108 81.51113,-8.241641 95.85007,-8.661762 15.59457,-0.456933 45.82121,-1.500238 87.50849,8.225043 96.9966,15.048652 200.20777,80.084799 263.6297,165.707399 20.57951,27.78331 46.30864,88.40667 56.72839,120.60503 40.16124,124.10344 23.05419,254.34256 -47.20523,359.38154 -22.26215,33.28227 -57.2372,70.60121 -97.71197,101.9599 -40.47477,34.40486 -96.82274,54.23726 -152.18955,66.6034 -25.57674,5.71255 -93.1829,9.48352 -121.61487,6.78339 z m 12.21594,-5.79209 c -1.93735,-0.78387 -5.8004,-0.83159 -8.58457,-0.10605 -2.78417,0.72554 -1.19908,1.3669 3.52245,1.42511 4.72151,0.0584 6.99948,-0.5352 5.06212,-1.31906 z m -36.10951,-5.41801 C 433.55175,856.3524 370.99321,833.16983 327.27789,807.86837 l -10.01534,-5.79666 7.15382,5.86072 c 11.69098,9.57776 53.84002,30.59569 83.20209,41.48936 28.16769,10.45052 74.7054,21.53616 89.92023,21.41973 4.72152,-0.0357 -0.23599,-1.81877 -11.0167,-3.96141 z m 41.83256,-0.30504 c -1.93733,-0.78387 -5.80041,-0.83159 -8.58457,-0.10605 -2.78417,0.72554 -1.19908,1.36679 3.52245,1.42511 4.72151,0.0584 6.99947,-0.53531 5.06212,-1.31906 z m -38.55297,-6.78108 c -37.70544,-8.12993 -88.86437,-24.78391 -123.17771,-40.09851 -16.91877,-7.55112 -30.76141,-13.20508 -30.76141,-12.56435 0,0.64074 10.47884,6.43364 23.2863,12.87311 38.50485,19.35985 122.16845,45.05071 146.97452,45.13187 4.72151,0.0152 -2.62326,-2.38848 -16.3217,-5.34212 z m 24.19089,-1.82167 c -1.96731,-0.79382 -5.18652,-0.79382 -7.15381,0 -1.9673,0.79382 -0.3577,1.44331 3.5769,1.44331 3.9346,0 5.5442,-0.64949 3.57691,-1.44331 z m -25.03836,-5.74225 C 421.80177,832.61145 367.45047,812.83162 332.9409,795.45289 c -10.98384,-5.53138 -19.97064,-9.30864 -19.97064,-8.3939 0,0.91474 15.9735,9.30415 35.49667,18.64314 35.17302,16.82516 85.32127,35.03463 125.41637,45.5403 24.24651,6.35303 36.09338,7.12941 15.07081,0.98764 z m 29.27104,0.18549 c -0.95087,-0.95086 -3.41892,-1.05252 -5.4846,-0.2259 -2.28272,0.91346 -1.60468,1.59153 1.72883,1.72884 3.01654,0.12424 4.70663,-0.55207 3.75577,-1.50294 z m -80.77851,-25.64015 c -39.34598,-13.35799 -84.0931,-29.91402 -99.43802,-36.79116 -15.34494,-6.87714 -27.89989,-12.01061 -27.89989,-11.40769 0,2.18653 40.47156,21.40584 67.83707,32.21478 36.67925,14.48768 116.54999,39.77184 126.74671,40.12335 2.36076,0.0815 -27.89989,-10.78129 -67.24587,-24.13928 z m 83.64003,19.9171 c -0.95086,-0.95086 -3.41893,-1.05252 -5.48459,-0.2259 -2.28274,0.91347 -1.60468,1.59152 1.72884,1.72884 3.01652,0.12424 4.70661,-0.55207 3.75575,-1.50294 z m -34.99407,-11.3051 c -14.16456,-5.45054 -52.15133,-19.07519 -84.41504,-30.27702 -32.26371,-11.20181 -67.99701,-24.62708 -79.40735,-29.83393 -11.41033,-5.20683 -20.74606,-8.9231 -20.74606,-8.25839 0,2.33014 38.86696,20.63585 62.95358,29.65016 39.44199,14.76096 138.42095,48.28952 143.07631,48.46627 2.36076,0.0896 -7.29689,-4.29655 -21.46144,-9.74709 z m 221.61056,-8.37933 c 38.15606,-17.29038 82.2101,-43.89299 122.01818,-86.70421 50.42498,-54.22904 88.46599,-108.49611 104.94132,-182.92745 8.8737,-40.08914 8.59494,-118.20325 0.45309,-156.06069 C 916.92373,316.72766 884.53036,245.35903 828.16106,186.52694 769.79782,125.61379 705.28036,89.79389 621.83557,68.195266 593.57073,60.879263 582.24441,57.862783 540.46158,56.649492 483.65699,54.99998 451.25172,61.62968 407.19584,75.548633 295.36149,110.88141 207.88836,193.31452 164.82475,298.94126 c -13.68967,33.57819 -20.19824,62.6709 -24.14156,102.04622 -7.30436,72.93658 8.94964,149.82419 56.01784,218.46637 8.07676,11.77884 22.54717,29.32244 32.15642,38.9858 25.64758,25.79204 37.66139,29.59003 104.1435,32.92353 101.11998,5.07026 120.21975,12.43187 180.27614,69.48364 35.28201,33.51686 56.7437,49.85388 81.0531,61.69911 36.88077,17.97086 70.1399,15.66014 113.37297,4.46215 z m -203.24911,8.85541 c -4.56455,-4.25618 -66.11076,-27.7569 -110.75646,-42.29111 -29.44856,-9.58683 -60.50112,-20.49968 -69.0057,-24.25077 -8.50459,-3.75108 -15.97547,-6.30756 -16.60198,-5.68106 -2.05928,2.05928 42.52202,19.44057 100.74147,39.2769 31.4768,10.72468 64.95664,22.72062 74.39968,26.65766 15.75002,6.56657 24.20946,9.07309 21.22299,6.28838 z m 33.23085,4.55957 c -6.17687,-5.81271 -112.13021,-46.36302 -157.32358,-60.47797 -31.39692,-9.806 -65.1987,-21.50786 -75.11506,-26.00415 -9.91635,-4.4963 -18.02973,-7.53123 -18.02973,-6.7443 0,3.60723 44.77615,21.27378 111.59952,44.03185 40.13289,13.66807 83.91425,29.52914 97.29188,35.24681 21.75288,9.29728 45.02963,17.19686 41.57697,13.94776 z m -43.00774,-25.47851 c -39.49924,-20.17927 -61.16132,-28.40176 -120.18409,-45.61947 -49.89707,-14.55563 -67.61413,-20.7433 -60.04185,-20.96959 4.75477,-0.1421 107.83308,30.57808 127.62961,38.03715 10.04191,3.78366 32.72305,14.13735 50.40253,23.00819 17.67947,8.87088 45.31651,22.6917 46.5231,22.64618 1.20659,-0.0454 -28.0186,-16.2752 -50.05235,-27.99924 -44.53938,-23.69915 -62.67052,-30.37916 -127.33791,-46.91466 -24.39451,-6.23771 -46.92903,-12.19319 -50.0767,-13.23443 -4.78301,-1.58217 -5.01802,-1.34076 -1.43077,1.46978 3.48325,2.72905 2.80905,3.03932 -3.57691,1.64618 -27.23951,-5.94254 16.85026,10.73278 93.71499,35.4442 29.90294,9.61356 67.88971,23.76181 84.41502,31.44056 38.05273,17.68181 43.74247,18.27556 10.01533,1.04515 z m 46.64894,-3.67772 c -3e-5,-3.86469 -5.05533,-6.52107 -6.43231,-7.77688 -1.41771,-1.29294 -1.48045,-0.52095 -0.14462,1.77995 1.77252,3.05307 1.13825,3.59476 -2.55137,2.17892 -2.91669,-1.11924 -4.20051,-0.73578 -3.16206,0.94447 2.28385,3.69535 -0.41635,3.58385 -7.70751,-0.31827 -4.27581,-2.28833 -5.34956,-2.28833 -3.9353,0 3.62816,5.87049 -2.49162,3.18132 -28.37044,-12.46662 -41.55625,-25.12751 -59.52233,-31.47753 -146.00621,-51.60521 -17.31223,-4.02913 -34.05215,-7.99842 -37.19984,-8.82067 -4.93788,-1.28987 -5.07195,-1.08422 -0.97722,1.49885 2.6102,1.64661 29.65162,9.38827 60.09204,17.20373 61.75017,15.85411 91.15879,26.37984 119.29686,42.69794 27.09929,15.7157 38.55426,21.3053 36.34886,17.73687 -2.59619,-4.20072 1.24459,-3.73588 9.86927,1.19442 3.9346,2.24922 14.38466,8.19671 14.53507,8.25248 0.15042,0.0557 -3.65517,-3.1553 -3.65519,-7.9307 z m -28.04901,-6.83784 c 0,-0.5885 -9.97958,-7.61315 -22.17683,-15.61032 -26.75396,-17.54135 -58.52973,-32.24787 -83.69963,-38.73802 -25.3581,-6.53869 -101.12497,-21.82516 -102.30867,-20.64146 -1.09309,1.09307 17.16287,5.85082 77.45909,20.18682 49.11023,11.67642 74.46901,21.56053 106.40306,41.47281 23.66237,14.75451 24.32298,15.11655 24.32298,13.33017 z m -185.9992,-3.12162 c 0,-0.73153 -2.89729,-2.7341 -6.43843,-4.45014 -6.18268,-2.99613 -6.21781,-2.9433 -0.88384,1.33008 5.83827,4.67742 7.32227,5.30976 7.32227,3.12006 z m 201.23491,-2.24681 c -1.24916,-1.9673 -2.29093,-4.43537 -2.31503,-5.48459 -0.024,-1.04924 -1.21603,-2.98075 -2.64873,-4.29229 -1.53795,-1.40789 -1.66781,-0.76746 -0.31708,1.56352 1.57413,2.71646 1.04773,3.49758 -1.68736,2.50384 -2.18638,-0.79436 -3.69388,-2.7712 -3.35002,-4.39297 0.34385,-1.62175 -6.47855,-9.01757 -15.1609,-16.43513 -8.68234,-7.41755 -15.06676,-14.20579 -14.18759,-15.08495 0.87917,-0.87917 5.77004,2.1625 10.86859,6.75929 6.64529,5.99126 6.06728,4.91939 -2.04135,-3.78552 -6.2213,-6.67881 -10.02377,-12.14328 -8.44994,-12.14328 3.76937,0 24.60198,21.39006 22.69242,23.29962 -0.81272,0.81273 2.05838,4.59468 6.38023,8.40433 l 7.85792,6.92664 -6.93724,-7.86919 c -3.81549,-4.32807 -5.79543,-7.8692 -4.39987,-7.8692 4.61174,0 -25.53452,-28.89201 -44.04385,-42.2114 -22.03582,-15.85708 -46.2095,-25.01561 -76.46032,-28.96803 -25.00852,-3.26749 -106.14084,-7.03416 -103.93186,-4.82516 0.76473,0.76473 25.32101,3.40043 54.56951,5.85713 61.76655,5.18799 78.34176,8.84774 109.80419,24.24433 20.98929,10.27143 37.98633,23.01093 30.70118,23.01093 -1.62506,0 -4.59662,-1.97849 -6.60349,-4.3966 -7.03003,-8.47069 -39.32272,-24.28603 -60.80924,-29.78136 -11.92728,-3.05049 -40.12606,-6.9192 -62.66396,-8.59712 -22.53789,-1.67792 -47.41643,-3.63569 -55.28562,-4.35061 -12.62012,-1.14653 -13.12636,-0.99951 -4.29229,1.24653 5.50843,1.4005 26.11143,4.04275 45.78441,5.87163 45.90282,4.26736 71.06327,9.07314 95.2318,18.18978 19.16324,7.2286 52.22358,26.97708 49.58263,29.61804 -0.74922,0.74922 -5.63178,-1.84298 -10.85013,-5.76047 -28.1886,-21.16161 -61.2741,-30.98752 -127.14292,-37.7596 -24.99859,-2.57014 -48.67119,-5.24996 -52.60579,-5.95517 l -7.15382,-1.2822 7.15382,2.76203 c 3.9346,1.51912 29.78416,6.03599 57.44349,10.03751 57.13458,8.26571 73.07877,12.39426 101.3712,26.24874 21.34418,10.452 48.70794,29.12368 46.2636,31.56801 -0.80963,0.80965 -8.33095,-3.64979 -16.71402,-9.90988 -24.689,-18.43658 -54.57975,-31.58306 -85.34932,-37.5381 -23.81257,-4.6086 -98.13637,-14.65886 -99.35957,-13.43566 -1.01145,1.01145 40.83018,9.20157 82.19041,16.08805 22.40711,3.73078 59.58716,15.50207 77.2612,24.46108 7.08228,3.59002 25.75374,15.58893 41.49214,26.66422 31.01197,21.82351 31.47659,22.10122 28.11257,16.80323 z m -22.38952,-16.45379 c -2.84862,-3.14767 -3.89161,-5.72305 -2.31778,-5.72305 1.57385,0 5.19221,2.57538 8.04082,5.72305 2.84861,3.1477 3.89162,5.72306 2.31776,5.72306 -1.57384,0 -5.19219,-2.57536 -8.0408,-5.72306 z m 8.4415,14.79462 c -1.49515,-1.30599 -11.90644,-8.93899 -23.13619,-16.96222 -41.27417,-29.4888 -68.55981,-39.48494 -138.39696,-50.70205 -24.39451,-3.91818 -48.85207,-8.4338 -54.35011,-10.03471 -12.34631,-3.59495 -14.10571,-3.60502 -8.60347,-0.0492 3.81537,2.46567 3.81537,2.78362 0,2.86152 -3.81537,0.0778 -3.81537,0.39584 0,2.86152 3.81537,2.46568 3.81537,2.78363 0,2.86153 -3.81537,0.0778 -3.81537,0.39585 0,2.86153 2.36076,1.52563 5.57998,2.77389 7.15381,2.77389 1.57384,0 0.93,-1.24826 -1.43076,-2.77389 -3.57052,-2.30746 -3.32994,-2.81508 1.43076,-3.01883 l 5.72306,-0.24495 -5.72306,-2.45928 c -9.51015,-4.08666 -3.40953,-3.23891 42.16332,5.85901 87.37011,17.44213 109.77323,25.21643 150.98969,52.39632 22.51342,14.84629 30.84238,19.58942 24.17991,13.76981 z M 294.84725,784.16342 c 0,-2.29154 -1.09407,-3.49023 -2.43127,-2.6638 -1.3372,0.82644 -1.69044,2.70133 -0.78497,4.16641 2.3139,3.74397 3.21624,3.3224 3.21624,-1.50261 z m -2.86151,-25.75374 c 0,-2.29153 -1.09408,-3.49024 -2.43129,-2.6638 -1.33721,0.82644 -1.69044,2.70132 -0.78496,4.16643 2.3139,3.74395 3.21625,3.32238 3.21625,-1.50263 z m -7.63075,-31.29651 c 0,-0.61854 -1.99841,-1.89148 -4.4409,-2.82875 -2.54655,-0.97719 -3.69515,-0.49748 -2.69265,1.12462 1.68046,2.71902 7.13355,4.02171 7.13355,1.70413 z m -1.35504,-12.63038 c -0.88103,-0.88103 -3.19001,-10e-4 -5.13108,1.95382 -2.80506,2.82607 -2.47637,3.15477 1.60187,1.60186 2.82209,-1.07461 4.41025,-2.67466 3.52921,-3.55568 z m 12.02615,-2.28147 c -0.95086,-0.95087 -3.41892,-1.05253 -5.48458,-0.22592 -2.28274,0.91347 -1.60468,1.59154 1.72883,1.72885 3.01652,0.12424 4.70661,-0.55207 3.75575,-1.50293 z m -23.47225,-17.74974 c -0.88102,-0.88103 -3.19002,-0.001 -5.13108,1.95381 -2.80506,2.82608 -2.47638,3.15478 1.60187,1.60186 2.82208,-1.07458 4.41024,-2.67465 3.52921,-3.55567 z"
       id="path1" /><path
       d="m 196.51224,618.60135 c 0,-2.94257 17.3892,-35.28506 38.64263,-71.87221 34.19027,-58.85742 39.81021,-66.14231 48.7761,-63.22622 8.83809,2.87458 11.55507,-0.33967 21.25495,-25.14519 8.99031,-22.99104 12.69737,-27.79295 19.34516,-25.05869 6.87245,2.82659 10.52088,-3.01895 22.20401,-35.57556 7.68915,-21.42688 16.02027,-38.98244 18.51359,-39.01235 2.49335,-0.0299 10.04961,7.40706 16.79177,16.52657 6.74212,9.1195 16.49868,16.58092 21.68119,16.58092 5.44717,0 15.00903,8.24497 22.6631,19.54182 l 13.24035,19.54182 26.44861,-36.63945 c 24.79958,-34.35498 30.19709,-45.68205 50.73203,-106.46472 l 8.06746,-23.87941 25.61772,26.08155 c 21.96669,22.3644 41.68076,49.08457 62.64204,84.90396 4.39743,7.5145 7.25481,5.84276 22.21025,-12.9947 l 17.16355,-21.6187 20.43992,12.74714 c 11.24195,7.0109 27.09461,16.7393 35.22809,21.61865 8.13352,4.87938 43.96746,45.55686 79.63104,90.39441 40.08533,50.3968 68.13355,81.52288 73.46162,81.52288 5.49053,0 15.67532,11.88393 28.06062,32.74202 10.69302,18.00811 19.44186,34.17452 19.44186,35.92532 0,1.75084 -44.10636,3.18331 -98.01412,3.18331 h -98.0141 l -2.83573,-15.19919 c -1.55963,-8.35954 -6.39436,-21.80095 -10.74379,-29.86981 -10.05436,-18.65233 -9.93387,-23.66797 0.79316,-33.01621 8.68042,-7.56475 8.6816,-7.65966 0.49588,-39.66554 -7.1619,-28.00282 -17.99454,-47.31313 -26.86107,-47.88267 -1.50502,-0.0966 -3.8959,-6.16259 -5.31309,-13.47977 -1.41717,-7.31719 -3.74984,-17.26573 -5.18368,-22.10787 -2.01709,-6.81183 0.15019,-8.75626 9.57808,-8.59323 17.15873,0.29673 55.39369,47.03837 59.15411,72.31503 2.39687,16.11129 8.13509,23.15871 41.87946,51.4344 48.82822,40.91502 86.45524,62.83663 93.09222,54.23586 3.45845,-4.48176 1.13495,-8.95511 -8.66131,-16.67529 -7.36321,-5.80277 -21.90114,-20.89095 -32.30651,-33.52935 -21.54225,-26.16525 -23.68493,-27.24406 -23.68493,-11.92493 0,6.0797 -1.91925,11.05397 -4.265,11.05397 -2.34574,0 -4.26501,-1.9081 -4.26501,-4.24017 0,-2.33211 -8.35916,-16.63312 -18.57589,-31.78008 -10.21676,-15.147 -19.94993,-33.16682 -21.62927,-40.04409 -5.69575,-23.32535 -41.3618,-61.08502 -72.34662,-76.59346 l -29.38399,-14.70718 -7.57367,13.01153 c -8.80058,15.11932 -6.13368,24.6096 20.32911,72.34259 16.27243,29.35188 16.00542,37.73007 -0.88464,27.7574 -16.11727,-9.51637 -12.82428,-2.90865 6.3795,12.80114 18.56279,15.18544 21.84278,27.68633 8.68435,33.09838 -6.67929,2.74719 -7.86709,6.74066 -5.8644,19.71687 1.38123,8.94955 1.0891,16.27192 -0.64915,16.27192 -1.73827,0 -12.75823,-9.13004 -24.48883,-20.28896 l -21.32834,-20.28896 -7.9371,13.38024 c -4.36539,7.35917 -7.97977,16.48917 -8.03192,20.28898 -0.22553,16.43041 -8.02471,4.78595 -12.61419,-18.83353 -5.00763,-25.77136 -2.39857,-34.70877 10.20862,-34.96982 2.24771,-0.0464 -4.38949,-11.27676 -14.74934,-24.95603 -10.35981,-13.67925 -22.05422,-24.8714 -25.98757,-24.8714 -13.42446,0 -20.92756,-24.4851 -20.92756,-68.2935 0,-39.58138 -0.39558,-41.17624 -11.07401,-44.64939 -8.72224,-2.83687 -13.1634,-0.45074 -20.9125,11.23581 -18.00478,27.1533 -19.56482,64.77473 -4.01012,96.70566 8.62253,17.7005 9.86229,24.06302 5.89562,30.25675 -2.76259,4.31366 -4.10358,14.07516 -2.97994,21.69217 1.12362,7.61709 0.9809,13.84924 -0.31717,13.84924 -6.12211,0 -71.0347,-59.25583 -85.62524,-78.1635 -9.04948,-11.72709 -20.51793,-21.322 -25.48545,-21.322 -13.16499,0 -10.90624,6.31915 8.46961,23.69491 17.62195,15.80292 33.41083,50.95444 33.58515,74.77218 0.0515,7.03946 2.08044,17.6098 4.50872,23.48964 5.61185,13.58846 0.68223,13.4501 -12.94509,-0.36334 -5.8644,-5.94449 -12.99409,-10.86348 -15.84375,-10.93105 -7.01976,-0.16638 -13.96953,17.85118 -14.20249,36.82082 -0.19078,15.53663 -0.22097,15.52005 -18.12632,-9.97027 -9.86436,-14.04303 -22.43668,-28.5586 -27.93852,-32.25685 -8.66471,-5.82427 -10.83868,-5.17845 -16.24615,4.82609 -4.85087,8.97474 -7.99137,10.33748 -14.08457,6.11162 -6.30729,-4.37432 -9.32365,-2.5076 -15.41507,9.53984 -4.16536,8.23814 -8.24556,12.36515 -9.06713,9.1712 -3.20944,-12.47724 12.27826,-46.7585 28.97445,-64.13355 17.64378,-18.36119 33.70927,-51.12718 33.70927,-68.75101 0,-8.09627 -1.50073,-7.64702 -10.31959,3.08924 -5.67578,6.90982 -12.65746,19.87733 -15.51484,28.81676 -3.5561,11.12549 -7.74328,15.74862 -13.27149,14.65322 -5.63052,-1.11561 -10.97436,5.09486 -17.64608,20.50766 -7.1295,16.47044 -12.67529,22.57165 -21.74842,23.9264 l -12.17863,1.81849 2.1786,35.17134 2.17859,35.17128 -17.31004,7.22599 c -28.34757,11.83358 -22.62154,12.29429 14.08803,22.81687 22.88204,6.55897 71.09608,10.76853 113.8835,18.11011 6.28977,1.07922 -84.5377,-3.5879 -129.89877,-3.47069 -39.17374,0.10128 -65.04149,-1.95974 -65.04149,-5.18208 z"
       style="display:inline;opacity:1;fill:url(#radialGradient17);stroke-width:2.35802"
       id="path1-3" /><text
       xml:space="preserve"
       style="font-style:normal;font-variant:normal;font-weight:normal;font-stretch:normal;font-size:43.7928px;line-height:0;font-family:'Berlin Sans FB';-inkscape-font-specification:'Berlin Sans FB, Normal';font-variant-ligatures:normal;font-variant-caps:normal;font-variant-numeric:normal;font-variant-east-asian:normal;letter-spacing:10.5833px;display:inline;opacity:1;mix-blend-mode:color;fill:url(#pattern32);fill-opacity:1;fill-rule:nonzero;stroke:#000000;stroke-width:1.50537;paint-order:stroke fill markers"
       id="text19"
       transform="matrix(1.3897623,0,0,1.3897623,-197.87104,-294.63256)"><textPath
         xlink:href="#path21"
         startOffset="50%"
         id="textPath21"
         style="font-style:normal;font-variant:normal;font-weight:normal;font-stretch:normal;font-size:43.7928px;font-family:'Berlin Sans FB';-inkscape-font-specification:'Berlin Sans FB, Normal';font-variant-ligatures:normal;font-variant-caps:normal;font-variant-numeric:normal;font-variant-east-asian:normal;text-align:center;letter-spacing:10.5833px;text-anchor:middle;fill:url(#pattern32);fill-opacity:1;stroke-width:1.50537">DAY TOUR AGENCY </textPath></text><circle
       style="display:none;opacity:1;fill:#000000;fill-opacity:0;fill-rule:nonzero;stroke:#000000;stroke-width:0.956296;paint-order:stroke fill markers"
       id="path21"
       cx="341.75732"
       cy="-689.00983"
       r="260.80786"
       transform="rotate(110.66672)" /><text
       xml:space="preserve"
       style="font-style:normal;font-variant:normal;font-weight:bold;font-stretch:normal;font-size:77.9281px;line-height:0;font-family:Calibri;-inkscape-font-specification:'Calibri, Bold';font-variant-ligatures:normal;font-variant-caps:normal;font-variant-numeric:normal;font-variant-east-asian:normal;text-align:center;letter-spacing:4.70818px;text-anchor:middle;opacity:1;fill:#000000;fill-opacity:1;fill-rule:nonzero;stroke:#000000;stroke-width:1.95742;paint-order:stroke fill markers"
       x="626.82233"
       y="810.29401"
       id="text32"
       transform="scale(0.85699071,1.1668738)"><tspan
         id="tspan32"
         style="font-style:normal;font-variant:normal;font-weight:bold;font-stretch:normal;font-size:77.9281px;font-family:Calibri;-inkscape-font-specification:'Calibri, Bold';font-variant-ligatures:normal;font-variant-caps:normal;font-variant-numeric:normal;font-variant-east-asian:normal;letter-spacing:4.70818px;fill:#000000;fill-opacity:1;stroke-width:1.95742"
         x="629.17639"
         y="810.29401">DAY TOUR AGENCY</tspan></text></g></svg>
